<?xml version="1.0" standalone="no"?>
<!DOCTYPE svg PUBLIC "-//W3C//DTD SVG 20010904//EN"
 "http://www.w3.org/TR/2001/REC-SVG-20010904/DTD/svg10.dtd">
<svg version="1.0" xmlns="http://www.w3.org/2000/svg"
 width="500.000000pt" height="500.000000pt" viewBox="0 0 500.000000 500.000000"
 preserveAspectRatio="xMidYMid meet">

<g transform="translate(0.000000,500.000000) scale(0.100000,-0.100000)"
fill="#000000" stroke="none">
<path d="M1635 4475 c-32 -31 -31 -50 3 -83 l27 -27 3 62 c2 48 7 63 20 66 12
3 10 5 -6 6 -13 0 -34 -10 -47 -24z"/>
<path d="M1786 4458 c-13 -80 -12 -83 15 -86 24 -3 27 1 33 44 9 70 8 74 -19
74 -19 0 -25 -6 -29 -32z"/>
<path d="M1458 4429 c3 -23 8 -36 12 -30 5 9 21 6 60 -9 29 -11 54 -19 56 -17
2 2 0 23 -5 48 -5 24 -9 36 -10 27 -1 -17 -4 -16 -51 2 -28 11 -54 20 -58 20
-4 0 -6 -19 -4 -41z"/>
<path d="M1937 4442 c-22 -24 -22 -66 0 -88 16 -15 18 -14 28 17 26 74 27 89
7 89 -11 0 -26 -8 -35 -18z"/>
<path d="M1327 4432 c-10 -10 -17 -27 -17 -38 0 -30 29 -64 54 -64 23 0 23 0
9 42 -8 24 -15 51 -16 60 -2 23 -10 23 -30 0z"/>
<path d="M2087 4392 c-23 -25 -21 -65 3 -87 18 -16 20 -16 20 -2 0 20 31 89
45 99 6 4 -4 8 -21 8 -17 0 -38 -8 -47 -18z"/>
<path d="M1187 4384 l-27 -15 25 -50 c22 -43 29 -49 48 -43 12 3 23 7 24 8 1
1 -8 27 -20 58 l-23 56 -27 -14z"/>
<path d="M1426 4363 c-6 -14 -5 -15 5 -6 7 7 10 15 7 18 -3 3 -9 -2 -12 -12z"/>
<path d="M2227 4314 c-32 -53 -33 -60 -7 -74 16 -9 22 -6 35 15 8 14 22 37 31
51 8 14 14 27 12 29 -2 1 -12 7 -24 13 -18 9 -23 5 -47 -34z"/>
<path d="M1066 4323 c-23 -12 -25 -16 -13 -26 7 -7 24 -29 36 -49 20 -34 25
-37 44 -27 12 7 23 13 25 15 2 1 -11 25 -30 52 -33 50 -34 50 -62 35z"/>
<path d="M2312 4274 c-24 -16 -30 -62 -11 -81 9 -9 20 1 45 37 19 27 34 52 34
55 0 11 -47 4 -68 -11z"/>
<path d="M2484 4173 c-15 -3 -25 -17 -33 -44 -11 -36 -10 -43 5 -60 9 -10 20
-19 24 -19 3 0 12 24 20 53 7 28 15 58 17 65 3 6 1 11 -3 11 -5 -1 -18 -4 -30
-6z"/>
<path d="M847 4152 c-16 -17 -14 -21 26 -60 42 -41 44 -42 60 -24 16 17 14 21
-26 60 -42 41 -44 42 -60 24z"/>
<path d="M765 4029 c4 -13 8 -24 9 -24 0 0 15 -5 32 -11 35 -13 68 -3 78 22 3
9 5 18 4 19 -2 2 -32 6 -67 10 -63 7 -63 7 -56 -16z"/>
<path d="M2598 3997 c-26 -18 -48 -34 -48 -37 0 -3 14 -21 31 -40 17 -19 26
-27 19 -17 -15 20 -13 23 43 59 37 25 37 26 20 46 l-18 20 -47 -31z"/>
<path d="M791 3960 c14 -31 19 -36 19 -24 0 6 -7 19 -16 30 -14 18 -14 18 -3
-6z"/>
<path d="M645 3887 c-13 -19 -12 -22 13 -39 51 -33 83 -43 93 -27 16 25 10 34
-41 60 l-50 27 -15 -21z"/>
<path d="M2683 3865 c-51 -23 -52 -25 -42 -49 l12 -25 38 20 c22 11 39 17 39
13 0 -3 7 2 16 10 15 15 12 56 -4 56 -4 0 -31 -11 -59 -25z"/>
<path d="M917 3823 c-4 -3 -7 -42 -7 -85 l0 -78 120 0 120 0 0 85 0 85 -113 0
c-63 0 -117 -3 -120 -7z"/>
<path d="M1177 3823 c-4 -3 -7 -41 -7 -84 0 -73 1 -78 23 -81 21 -3 22 -7 22
-98 0 -85 -2 -95 -17 -92 -19 3 -24 -13 -8 -23 20 -12 9 -23 -25 -27 -27 -3
-40 1 -55 17 -11 12 -20 27 -20 33 0 7 -9 12 -20 12 -15 0 -20 7 -20 25 0 28
-25 45 -67 45 -15 0 -34 4 -42 9 -19 12 -41 -28 -41 -73 0 -24 7 -35 31 -49
l32 -18 -20 -22 c-16 -16 -19 -31 -15 -56 4 -29 0 -38 -24 -57 -26 -21 -27
-25 -14 -48 17 -33 30 -33 30 -2 0 16 7 26 23 30 36 9 135 7 142 -4 3 -5 15
-10 25 -10 11 0 39 -10 64 -21 l44 -22 4 -106 c3 -90 8 -114 30 -157 61 -117
175 -174 349 -174 167 0 289 62 345 177 28 56 29 64 34 248 5 182 6 190 25
190 19 0 20 -5 16 -97 l-3 -98 31 0 c24 0 32 -5 37 -25 3 -14 34 -50 67 -81
57 -51 62 -54 75 -37 7 10 16 30 19 46 4 20 9 25 17 18 18 -15 86 36 86 64 0
15 12 27 44 42 108 53 156 132 164 269 6 112 -15 181 -74 244 -71 76 -122 93
-291 98 l-143 4 0 -85 0 -85 138 -4 c147 -4 167 -9 196 -59 20 -34 21 -127 2
-173 -7 -18 -27 -43 -44 -55 l-30 -21 -74 87 c-70 83 -77 88 -121 93 -26 3
-52 11 -59 18 -7 7 -27 12 -45 12 -33 0 -33 1 -33 46 0 37 4 47 20 51 18 5 20
14 20 89 l0 84 -115 0 -115 0 0 -84 c0 -76 2 -84 21 -89 16 -4 20 -12 17 -39
-3 -29 -6 -33 -33 -33 -16 0 -47 -11 -69 -24 -32 -20 -36 -26 -24 -35 8 -6 13
-17 11 -23 -3 -8 5 -13 20 -13 15 0 28 -8 35 -24 8 -18 16 -22 36 -19 l26 5 0
-174 c0 -206 -11 -260 -65 -307 -37 -32 -117 -61 -170 -61 -46 0 -128 27 -160
52 -38 30 -65 93 -65 156 0 39 4 52 15 52 9 0 14 -8 13 -23 -1 -13 8 -38 21
-56 15 -20 21 -41 18 -57 -4 -23 -2 -24 42 -24 63 0 89 9 96 31 5 14 16 19 41
19 22 0 37 6 40 15 8 20 -73 125 -97 125 -19 0 -35 33 -24 50 3 5 20 10 37 10
22 0 40 10 62 33 17 17 43 38 59 44 19 9 27 20 27 37 0 15 8 30 20 36 27 14
25 24 -6 45 -28 18 -50 21 -76 10 -23 -9 -25 17 -3 35 35 29 10 26 -51 -6 -36
-19 -73 -34 -81 -34 -9 0 -38 -13 -65 -30 -86 -53 -88 -51 -88 100 0 109 2
130 15 130 12 0 15 16 15 85 l0 85 -108 0 c-60 0 -112 -3 -115 -7z"/>
<path d="M1430 3745 l0 -85 130 0 130 0 0 85 0 85 -130 0 -130 0 0 -85z"/>
<path d="M604 3804 c-4 -11 -8 -22 -10 -25 -2 -3 22 -16 52 -29 47 -19 58 -20
65 -9 20 31 16 35 -88 76 -7 3 -16 -3 -19 -13z"/>
<path d="M605 3700 c-11 -4 -28 -11 -38 -14 -15 -5 -16 -9 -7 -26 12 -23 27
-25 82 -8 31 9 38 16 36 32 -3 23 -39 31 -73 16z"/>
<path d="M2763 3657 c-48 -11 -56 -32 -24 -59 15 -13 21 -14 25 -3 2 7 23 16
46 20 31 5 40 11 36 22 -3 8 -6 19 -6 24 0 11 -21 10 -77 -4z"/>
<path d="M640 3560 c-6 -11 -8 -20 -6 -20 3 0 10 9 16 20 6 11 8 20 6 20 -3 0
-10 -9 -16 -20z"/>
<path d="M520 3516 c0 -21 6 -26 51 -35 57 -12 69 -9 69 20 0 22 -6 25 -72 34
-46 6 -48 5 -48 -19z"/>
<path d="M2815 3469 c-4 -5 -18 -14 -31 -19 -18 -7 -24 -17 -24 -40 0 -16 3
-30 7 -30 11 0 113 64 113 71 0 5 -45 29 -55 29 -2 0 -7 -5 -10 -11z"/>
<path d="M506 3377 c-8 -32 1 -37 65 -37 56 0 59 1 59 25 0 22 -4 25 -37 26
-21 0 -48 2 -60 3 -14 2 -23 -4 -27 -17z"/>
<path d="M2793 3300 c-18 -27 -33 -52 -33 -55 0 -3 14 -5 30 -5 25 0 35 8 60
47 37 58 37 63 3 63 -22 0 -35 -11 -60 -50z"/>
<path d="M570 3270 c0 -5 -13 -17 -30 -27 -30 -17 -37 -37 -22 -60 6 -9 22 -3
60 22 29 20 52 39 52 43 0 4 -13 13 -30 19 -16 6 -30 7 -30 3z"/>
<path d="M2805 3167 c6 -13 2 -17 -18 -17 -14 0 -33 -7 -41 -16 -19 -19 -22
-58 -3 -51 6 2 38 12 71 21 32 10 57 18 55 19 -2 1 -19 15 -37 32 -22 19 -31
24 -27 12z"/>
<path d="M570 3141 c-29 -5 -36 -11 -38 -34 -3 -28 -3 -28 35 -21 60 11 83 18
83 27 1 41 -3 42 -80 28z"/>
<path d="M624 3060 c-16 -6 -23 -21 -29 -55 -3 -26 -9 -54 -12 -63 -5 -12 -1
-14 23 -8 16 4 30 8 31 9 1 1 8 30 16 65 15 65 13 69 -29 52z"/>
<path d="M2750 3019 c-33 -13 -33 -14 -19 -36 11 -18 15 -18 48 -7 41 14 44
21 16 39 -14 9 -27 10 -45 4z"/>
<path d="M1027 2953 c-12 -11 -8 -23 8 -23 8 0 15 7 15 15 0 16 -12 20 -23 8z"/>
<path d="M2680 2951 c0 -5 -2 -16 -6 -24 -4 -11 8 -16 52 -21 31 -3 59 -4 61
-2 3 3 -2 15 -10 27 -11 15 -29 23 -56 25 -23 2 -41 0 -41 -5z"/>
<path d="M2220 2931 c0 -8 -8 -11 -20 -8 -11 3 -18 1 -14 -4 3 -5 11 -9 19 -9
16 0 30 18 21 27 -3 4 -6 1 -6 -6z"/>
<path d="M2253 2930 c2 -8 12 -16 23 -17 13 -2 15 -1 4 4 -8 3 -19 11 -23 17
-6 7 -7 6 -4 -4z"/>
<path d="M1220 2838 l0 -98 75 0 c73 0 75 1 75 25 0 14 -4 25 -9 25 -14 0
-103 83 -122 115 l-19 30 0 -97z"/>
<path d="M1945 2887 c-17 -23 -49 -55 -72 -72 -27 -19 -42 -38 -42 -52 -1 -22
3 -23 74 -23 l75 0 0 95 c0 52 -1 95 -2 94 -2 0 -17 -19 -33 -42z"/>
<path d="M2222 2848 c-2 -37 2 -49 16 -57 17 -9 19 -5 19 47 0 53 0 54 -4 10
-2 -27 -8 -48 -13 -48 -5 0 -11 21 -13 48 l-3 47 -2 -47z"/>
<path d="M2270 2886 c0 -2 7 -7 16 -10 8 -3 12 -2 9 4 -6 10 -25 14 -25 6z"/>
<path d="M683 2852 c-48 -25 -51 -29 -40 -49 l12 -21 45 21 c35 17 46 28 48
50 4 33 0 33 -65 -1z"/>
<path d="M2617 2816 c-15 -16 -27 -33 -27 -37 0 -5 32 -9 70 -9 39 0 70 2 70
5 0 10 -30 65 -36 65 -3 0 -2 -4 1 -10 3 -6 -5 -10 -19 -10 -13 0 -26 6 -28
12 -3 8 -14 2 -31 -16z"/>
<path d="M1027 2814 c-14 -15 -6 -34 14 -34 14 0 19 5 17 17 -3 18 -20 27 -31
17z"/>
<path d="M2351 2804 c0 -11 3 -14 6 -6 3 7 2 16 -1 19 -3 4 -6 -2 -5 -13z"/>
<path d="M2160 2763 c19 -3 41 -9 47 -15 15 -13 17 -84 3 -91 -6 -3 -5 -4 2
-3 7 1 14 20 16 40 4 51 -19 77 -67 74 l-36 -1 35 -4z"/>
<path d="M2312 2763 c20 -2 39 -11 41 -19 3 -9 4 -8 3 3 -1 14 -11 18 -41 19
l-40 1 37 -4z"/>
<path d="M2381 2750 c0 -8 6 -24 14 -34 13 -17 15 -18 15 -3 0 9 -4 17 -9 17
-5 0 -12 8 -14 18 -3 12 -5 13 -6 2z"/>
<path d="M3327 2753 c-4 -3 -7 -26 -7 -50 0 -41 2 -43 28 -42 16 1 20 3 10 6
-26 6 -22 31 5 36 l22 4 -22 2 c-25 1 -32 31 -8 31 8 0 15 5 15 10 0 11 -33
14 -43 3z"/>
<path d="M3182 2743 c-16 -3 -22 -9 -18 -20 3 -8 6 -19 6 -24 0 -5 11 -9 25
-9 16 0 25 -6 25 -15 0 -11 -9 -15 -30 -13 -25 2 -31 7 -36 35 -3 18 -10 33
-14 33 -4 0 -4 -17 1 -37 5 -21 9 -41 9 -45 0 -5 27 -5 78 1 6 0 12 12 12 26
0 21 -5 25 -30 25 -21 0 -30 5 -30 16 0 12 7 15 25 12 17 -4 25 -1 25 8 0 14
-6 15 -48 7z"/>
<path d="M3253 2743 c11 -3 17 -14 17 -31 0 -15 5 -34 10 -42 6 -10 8 -3 3 23
-4 30 -3 37 11 37 9 0 16 5 16 10 0 6 -17 9 -37 9 -21 -1 -30 -3 -20 -6z"/>
<path d="M3388 2704 c-2 -25 0 -48 4 -50 5 -3 8 15 8 40 0 25 5 46 10 46 6 0
10 -21 11 -47 1 -52 4 -49 14 10 9 56 29 47 22 -10 -4 -31 -3 -41 3 -28 5 11
9 35 9 53 1 31 -1 32 -38 32 l-39 0 -4 -46z"/>
<path d="M2252 2698 c-2 -40 1 -48 16 -48 11 0 13 3 5 8 -6 4 -13 25 -16 47
-4 40 -4 40 -5 -7z"/>
<path d="M3483 2695 c-10 -43 -1 -66 10 -25 6 24 37 17 37 -9 0 -12 14 -22 40
-31 45 -15 48 -14 52 21 2 18 -2 25 -19 27 -13 2 -23 10 -23 18 0 17 31 19 48
2 9 -9 12 -9 12 0 0 14 -47 35 -60 27 -4 -2 -10 -14 -13 -25 -4 -16 1 -23 19
-30 26 -10 33 -30 10 -30 -36 0 -46 12 -46 56 0 42 -2 44 -28 44 -26 0 -30 -5
-39 -45z m57 14 c0 -15 -4 -19 -16 -15 -9 3 -18 6 -20 6 -2 0 -4 7 -4 15 0 8
9 15 20 15 14 0 20 -7 20 -21z"/>
<path d="M897 2724 c-9 -10 2 -24 18 -24 9 0 12 6 9 15 -6 16 -17 19 -27 9z"/>
<path d="M3082 2722 c-27 -8 -28 -9 -20 -40 5 -19 11 -22 32 -16 19 4 26 2 26
-9 0 -17 -27 -30 -43 -21 -9 5 -9 4 -1 -5 7 -7 22 -9 38 -5 22 5 27 11 22 28
-3 11 -6 24 -6 27 0 3 -13 4 -30 1 -23 -3 -30 -1 -30 13 0 13 6 16 25 13 17
-4 25 -1 25 8 0 15 -3 15 -38 6z"/>
<path d="M1145 2711 c-7 -12 12 -24 25 -16 11 7 4 25 -10 25 -5 0 -11 -4 -15
-9z"/>
<path d="M2106 2673 c-6 -14 -5 -15 5 -6 7 7 10 15 7 18 -3 3 -9 -2 -12 -12z"/>
<path d="M2962 2681 c-11 -6 -10 -16 4 -49 17 -43 27 -49 54 -32 12 8 11 10
-7 10 -26 0 -29 10 -10 29 10 12 9 13 -7 7 -29 -10 -40 16 -13 31 14 8 17 12
7 12 -8 1 -21 -3 -28 -8z"/>
<path d="M3678 2646 l-17 -45 32 -10 c23 -9 33 -8 39 1 5 9 8 8 8 -5 0 -9 11
-23 25 -29 21 -10 28 -8 40 8 26 34 30 66 10 81 -28 20 -41 16 -54 -15 -9 -20
-19 -28 -41 -30 -36 -3 -43 8 -29 47 12 35 21 38 44 15 9 -9 19 -13 23 -9 9 9
-27 35 -48 35 -9 0 -22 -17 -32 -44z m142 -22 c0 -13 -34 -54 -46 -54 -20 0
-22 12 -7 48 11 28 16 31 33 22 11 -6 20 -13 20 -16z"/>
<path d="M2898 2654 l-28 -14 22 -45 c21 -44 22 -44 50 -29 33 17 32 15 14 58
-18 43 -25 47 -58 30z m47 -34 c14 -27 14 -30 -3 -39 -15 -8 -22 -4 -36 20 -9
16 -14 34 -11 39 12 19 35 10 50 -20z"/>
<path d="M2220 2618 c0 -11 8 -18 20 -18 12 0 20 7 20 18 0 14 -2 15 -10 2 -9
-13 -11 -13 -20 0 -8 13 -10 12 -10 -2z"/>
<path d="M800 2597 c0 -26 23 -51 56 -61 12 -4 29 -15 39 -26 18 -19 17 -20
-9 -20 -15 0 -36 -5 -47 -11 -16 -8 -18 -13 -8 -25 16 -20 45 -17 67 6 l19 21
39 -35 c70 -63 130 -104 212 -145 44 -23 85 -41 91 -41 7 0 -5 -17 -26 -37
l-38 -38 28 -3 c34 -4 59 14 55 39 -4 24 0 24 93 -1 58 -15 84 -19 92 -11 18
18 -2 28 -87 45 -44 9 -82 18 -84 21 -3 3 2 13 11 23 22 24 21 45 -2 66 -18
17 -19 16 -26 -13 -3 -17 -4 -40 0 -51 6 -18 4 -19 -20 -10 -14 6 -35 15 -47
21 -18 10 -18 12 -4 28 21 23 20 44 -3 65 -19 17 -20 17 -26 -17 -4 -20 -4
-40 0 -46 10 -17 -7 -13 -43 9 l-32 20 20 20 c26 26 25 32 -4 59 l-24 22 -6
-36 c-4 -19 -4 -40 0 -47 8 -12 -4 -7 -48 24 -27 19 -27 19 -8 38 26 26 25 32
-4 59 l-24 23 -7 -41 c-7 -40 -7 -40 -31 -25 -27 18 -31 39 -9 48 21 8 19 40
-4 60 -19 17 -20 17 -26 -17 -4 -20 -3 -41 1 -48 4 -7 -7 -3 -24 10 -21 14
-32 31 -32 46 0 17 -9 29 -30 40 -38 20 -40 19 -40 -8z"/>
<path d="M2535 2595 c-14 -13 -25 -30 -25 -38 0 -7 -10 -23 -23 -35 l-22 -21
-1 40 c-2 47 -8 56 -29 39 -19 -16 -19 -54 0 -70 14 -12 13 -16 -6 -37 -22
-22 -46 -32 -34 -14 3 5 0 21 -6 35 -10 20 -15 23 -30 15 -23 -12 -25 -42 -4
-59 21 -18 19 -22 -22 -49 -27 -18 -35 -19 -30 -7 7 16 -11 66 -23 66 -12 0
-30 -24 -30 -41 0 -9 7 -22 15 -29 25 -21 20 -26 -49 -58 -4 -3 -5 4 -2 14 3
11 2 32 -2 48 l-8 30 -22 -22 c-27 -27 -27 -36 0 -61 l21 -20 -49 -22 c-27
-11 -89 -31 -138 -43 -85 -21 -115 -39 -84 -51 8 -3 51 5 95 18 l82 24 3 -31
c3 -28 6 -31 43 -34 22 -1 35 1 29 5 -6 4 -16 18 -23 31 -6 12 -18 22 -26 22
-29 0 -15 17 27 33 23 9 42 16 43 14 0 -1 6 -14 13 -29 11 -27 33 -35 65 -22
12 4 11 10 -8 30 -12 13 -30 24 -39 24 -24 0 -14 12 31 35 21 11 40 22 43 25
3 3 23 18 45 34 22 16 57 45 78 65 l39 36 15 -22 c17 -25 34 -28 64 -12 20 10
20 11 2 24 -10 8 -31 15 -47 15 l-29 0 23 25 c13 14 31 25 41 25 21 0 49 36
49 62 0 25 -27 22 -55 -7z"/>
<path d="M3248 2611 c-99 -8 -112 -21 -20 -21 l72 0 0 -30 0 -30 213 1 212 0
-44 20 c-112 50 -280 73 -433 60z"/>
<path d="M3830 2588 c-21 -35 -27 -63 -11 -53 5 3 15 21 21 40 6 19 16 35 21
35 14 0 11 -28 -7 -56 -9 -13 -14 -27 -11 -31 3 -3 14 11 23 31 17 35 34 48
34 26 0 -6 -7 -25 -16 -42 -10 -20 -11 -28 -3 -22 9 5 11 2 6 -9 -8 -20 -3
-21 23 -5 15 10 22 10 32 0 9 -9 16 -8 30 5 24 21 23 28 -9 48 -26 18 -27 17
-50 -11 -25 -31 -33 -21 -8 12 20 27 19 31 -15 49 -38 20 -37 20 -60 -17z
m135 -48 c11 -18 -5 -31 -26 -20 -11 6 -17 15 -14 21 8 12 32 12 40 -1z"/>
<path d="M2783 2593 l-22 -15 20 -42 20 -41 -30 33 c-37 39 -49 42 -23 5 34
-50 37 -59 11 -38 -13 11 -30 26 -37 34 -11 13 -15 13 -33 -6 l-22 -21 26 -34
c25 -33 25 -34 7 -46 -23 -14 -37 2 -20 23 14 17 -1 20 -17 4 -20 -20 -36 1
-17 22 9 10 12 19 7 19 -6 0 -16 -7 -23 -15 -10 -12 -8 -21 14 -50 15 -19 31
-35 35 -35 19 0 53 49 47 68 -9 27 19 50 32 26 8 -14 13 -14 33 -4 33 17 32
16 19 39 -9 17 -8 22 6 28 10 4 22 0 29 -11 7 -9 16 -13 19 -8 5 9 -43 81 -54
81 -3 0 -15 -7 -27 -16z m37 -17 c0 -21 -20 -30 -33 -17 -9 9 -8 14 3 21 21
14 30 12 30 -4z m-96 -65 c7 -10 -22 -37 -30 -28 -9 8 3 37 15 37 5 0 12 -4
15 -9z"/>
<path d="M3090 2584 c-65 -21 -100 -37 -100 -45 0 -5 32 -9 70 -9 l70 0 0 30
c0 29 -8 34 -40 24z"/>
<path d="M3977 2492 c-32 -34 -33 -43 -7 -67 19 -17 21 -17 41 1 11 10 26 28
31 39 8 14 2 12 -21 -9 -23 -22 -34 -27 -42 -19 -9 9 -6 21 9 47 26 43 24 45
-11 8z"/>
<path d="M2986 2484 c-5 -14 -16 -16 -69 -10 -56 5 -66 4 -100 -19 -20 -14
-37 -28 -37 -30 0 -3 34 -5 76 -5 71 0 75 1 69 20 -6 17 -2 20 29 20 29 0 36
-4 36 -20 0 -18 7 -20 70 -20 63 0 70 2 70 20 0 18 7 20 85 20 81 0 85 -1 85
-22 0 -22 3 -23 70 -20 61 3 70 6 70 23 0 17 8 19 83 19 63 0 92 -5 122 -20
22 -11 58 -20 82 -20 32 0 45 5 53 20 7 14 21 20 43 20 l32 0 -30 20 c-28 18
-47 20 -276 20 -210 0 -248 -2 -253 -15 -4 -12 -23 -15 -81 -15 -58 0 -77 3
-81 15 -9 23 -139 21 -148 -1z"/>
<path d="M4068 2459 c10 -13 7 -20 -13 -39 -14 -13 -25 -28 -25 -33 0 -6 11
-1 23 12 15 13 30 19 40 15 26 -10 20 10 -10 37 -15 13 -22 17 -15 8z"/>
<path d="M2629 2407 c37 -39 41 -42 41 -28 0 5 -17 21 -37 36 l-38 28 34 -36z"/>
<path d="M916 2400 l-29 -19 26 -12 c14 -6 33 -9 42 -6 22 9 31 37 14 48 -18
11 -19 11 -53 -11z"/>
<path d="M2412 2411 c-10 -6 -9 -13 7 -32 18 -23 20 -23 52 -7 19 9 27 17 18
17 -9 1 -22 8 -29 16 -14 17 -29 19 -48 6z"/>
<path d="M2600 2395 l24 -26 -44 7 -45 7 33 -35 c25 -26 29 -37 20 -46 -14
-14 -38 -16 -38 -4 0 4 5 13 12 20 7 7 8 12 2 12 -5 0 -15 -5 -22 -12 -9 -9
-15 -9 -23 -1 -8 8 -8 13 0 17 6 4 11 12 11 18 0 7 -6 6 -15 -2 -22 -18 -18
-34 15 -58 38 -29 44 -28 70 8 l21 30 -25 12 c-38 17 -31 28 10 16 20 -5 39
-7 42 -4 7 8 -48 66 -62 66 -5 0 1 -11 14 -25z"/>
<path d="M4099 2384 c-37 -19 -57 -44 -36 -44 9 0 19 5 22 10 5 8 11 7 21 -1
13 -10 12 -14 -1 -29 -9 -10 -12 -21 -7 -24 5 -3 23 11 41 31 30 34 31 37 15
54 -20 22 -20 22 -55 3z m47 -33 c-10 -16 -23 -14 -30 5 -9 25 4 38 21 21 9
-8 12 -20 9 -26z"/>
<path d="M2082 2357 c-24 -25 -22 -51 5 -62 26 -9 36 10 27 50 l-9 37 -23 -25z"/>
<path d="M2675 2330 l-49 -50 81 0 c73 0 85 3 112 25 27 23 37 26 98 23 62 -3
68 -5 71 -25 3 -21 8 -23 73 -23 67 0 69 1 69 25 0 25 1 25 85 25 84 0 85 0
85 -25 0 -24 2 -25 70 -25 68 0 70 1 70 25 l0 25 220 0 220 0 0 -25 c0 -25 1
-25 86 -25 l86 0 -32 40 c-18 22 -40 45 -50 50 -31 16 -68 12 -80 -10 -10 -19
-21 -20 -230 -20 -213 0 -220 1 -220 20 0 18 -7 20 -70 20 -63 0 -70 -2 -70
-20 0 -18 -7 -20 -85 -20 -78 0 -85 2 -85 20 0 18 -7 20 -69 20 -60 0 -69 -2
-74 -20 -4 -17 -13 -20 -69 -20 l-63 1 24 19 23 20 -89 0 -89 0 -49 -50z"/>
<path d="M1015 2320 c-17 -19 -17 -20 6 -29 26 -10 59 10 59 36 0 20 -45 16
-65 -7z"/>
<path d="M2310 2320 c0 -25 29 -40 58 -29 21 8 22 9 5 29 -23 27 -63 27 -63 0z"/>
<path d="M4141 2311 c-34 -28 -35 -29 -18 -54 12 -19 22 -24 35 -20 15 6 15 5
3 -10 -23 -29 10 -20 49 13 35 31 31 41 -7 15 -16 -11 -28 -13 -47 -5 -33 12
-33 35 -1 56 28 18 45 12 45 -19 0 -16 3 -18 11 -10 9 9 8 18 -5 37 -20 32
-23 32 -65 -3z"/>
<path d="M2467 2283 c-21 -27 -16 -38 32 -66 30 -18 30 -17 47 8 15 23 15 28
2 41 -13 13 -16 13 -29 -2 -12 -16 -12 -17 3 -12 21 9 31 -2 17 -18 -9 -11
-16 -11 -40 2 -33 16 -36 26 -14 48 8 8 12 17 8 19 -5 3 -16 -6 -26 -20z"/>
<path d="M1112 2265 l-22 -25 25 -6 c29 -7 55 10 55 37 0 27 -32 24 -58 -6z"/>
<path d="M1852 2269 c-20 -8 -22 -13 -16 -51 8 -63 11 -67 33 -61 22 6 26 37
12 94 -5 23 -9 25 -29 18z"/>
<path d="M1517 2263 c-3 -5 -7 -29 -11 -54 -6 -42 -5 -47 16 -52 12 -4 23 -5
25 -4 1 2 5 29 9 60 6 53 5 57 -14 57 -11 0 -23 -3 -25 -7z"/>
<path d="M1640 2211 c0 -48 -3 -60 -17 -64 -15 -4 -15 -5 2 -6 28 -1 65 26 65
49 0 19 2 18 38 -3 20 -12 39 -25 40 -30 6 -13 32 14 32 34 0 12 -11 24 -27
30 -16 6 -36 17 -45 26 -16 14 -18 14 -24 -1 -6 -15 -9 -15 -23 -3 -38 33 -41
30 -41 -32z"/>
<path d="M2571 2203 l-31 -48 72 -3 c78 -3 72 -7 129 71 l20 27 -79 0 -80 0
-31 -47z"/>
<path d="M2988 2232 c-3 -10 -3 -32 0 -50 l4 -32 68 0 68 0 4 32 c9 62 3 68
-72 68 -57 0 -68 -3 -72 -18z"/>
<path d="M3298 2232 c-3 -10 -3 -32 0 -50 l4 -32 68 0 68 0 4 32 c9 62 3 68
-72 68 -57 0 -68 -3 -72 -18z"/>
<path d="M3878 2232 c-3 -10 -3 -32 0 -50 l4 -32 129 0 c71 0 129 3 129 6 0 3
-14 25 -30 50 l-31 44 -98 0 c-87 0 -99 -2 -103 -18z"/>
<path d="M4203 2220 c-18 -11 -33 -22 -33 -26 0 -5 19 -45 25 -52 2 -2 16 3
32 12 55 30 55 30 42 59 -15 32 -24 33 -66 7z m55 -10 c11 -18 9 -21 -20 -34
-29 -12 -35 -12 -45 2 -11 13 -8 18 15 33 35 23 35 23 50 -1z"/>
<path d="M2454 2215 c11 -8 25 -15 30 -15 6 0 2 7 -8 15 -11 8 -25 15 -30 15
-6 0 -2 -7 8 -15z"/>
<path d="M2453 2193 c-24 -2 -43 -8 -43 -13 0 -5 17 -19 38 -30 35 -19 35 -20
7 -14 -16 4 -38 11 -47 16 -10 5 -18 6 -18 4 0 -3 19 -15 41 -27 34 -17 43
-18 50 -7 13 20 11 29 -11 35 -28 8 -14 23 21 23 18 0 28 4 24 10 -3 6 -9 9
-13 8 -4 -1 -26 -3 -49 -5z"/>
<path d="M4247 2148 c-22 -11 -36 -22 -33 -25 3 -3 17 2 32 12 l27 18 -23 -37
c-12 -20 -20 -39 -17 -42 5 -6 87 33 87 41 0 2 -16 -3 -35 -11 l-34 -14 21 35
c11 20 19 37 17 39 -2 2 -21 -5 -42 -16z"/>
<path d="M1728 2143 c6 -2 18 -2 25 0 6 3 1 5 -13 5 -14 0 -19 -2 -12 -5z"/>
<path d="M2507 2085 c-9 -20 -17 -40 -17 -45 0 -6 29 -10 65 -10 54 0 66 3 75
20 10 19 21 20 185 20 168 0 175 -1 175 -20 0 -18 7 -20 70 -20 63 0 70 2 70
20 0 18 7 20 85 20 78 0 85 -2 85 -20 0 -18 7 -20 69 -20 60 0 69 2 74 20 5
19 14 20 221 20 209 0 216 -1 216 -20 0 -18 7 -20 65 -20 58 0 65 2 65 20 0
27 43 27 61 -1 12 -17 23 -20 71 -17 l57 3 -19 43 -19 42 -141 0 c-134 0 -140
-1 -140 -20 0 -20 -5 -20 -217 -18 -201 3 -218 4 -217 21 2 15 -8 17 -72 17
-67 0 -74 -2 -74 -20 0 -18 -7 -20 -81 -20 -72 0 -81 2 -86 20 -5 18 -14 20
-73 20 -59 0 -68 -2 -73 -20 -5 -19 -14 -20 -164 -20 -88 0 -163 3 -166 7 -4
3 -2 12 4 20 9 11 -2 13 -63 13 l-74 0 -17 -35z"/>
<path d="M2360 2081 c0 -5 -3 -16 -6 -24 -4 -11 8 -19 41 -30 43 -15 46 -15
52 1 3 9 8 20 10 25 2 4 -1 7 -6 7 -6 0 -11 -7 -11 -16 0 -9 -6 -14 -12 -11
-7 2 -12 12 -12 21 1 9 -2 16 -7 16 -5 0 -9 -7 -9 -16 0 -9 -6 -14 -12 -11 -7
2 -13 14 -12 26 0 11 -3 21 -8 21 -4 0 -8 -4 -8 -9z"/>
<path d="M4280 2073 c-34 -6 -50 -23 -23 -23 29 0 40 -20 20 -35 -17 -12 -15
-61 3 -79 5 -5 7 0 3 13 -3 14 -1 21 8 21 8 1 28 7 44 15 l30 14 -45 -5 -45
-5 38 21 c41 23 41 23 27 51 -11 19 -15 20 -60 12z m48 -26 c2 -10 -3 -17 -11
-17 -16 0 -30 24 -19 34 10 10 27 1 30 -17z"/>
<path d="M2340 2010 c-18 -34 -11 -49 31 -61 34 -11 42 -10 50 2 18 27 5 52
-33 65 -34 12 -39 11 -48 -6z m79 -16 c11 -10 -11 -34 -31 -34 -33 0 -52 15
-44 35 5 13 13 15 38 10 18 -4 35 -9 37 -11z"/>
<path d="M2470 1998 c0 -2 -7 -24 -15 -50 l-14 -48 68 0 c60 0 69 2 74 20 5
19 14 20 206 20 194 0 201 -1 201 -20 0 -18 7 -20 70 -20 63 0 70 2 70 20 0
18 7 20 85 20 78 0 85 -2 85 -20 0 -18 7 -20 75 -20 68 0 75 2 75 20 0 19 7
20 215 20 208 0 215 -1 215 -20 0 -18 7 -20 65 -20 58 0 65 2 65 20 0 16 7 20
30 20 23 0 30 -4 30 -20 0 -18 7 -20 85 -20 l85 0 -6 28 c-17 70 -20 72 -77
72 -52 0 -54 -1 -49 -25 4 -24 2 -25 -47 -25 -48 0 -51 2 -51 25 0 24 -2 25
-65 25 -63 0 -65 -1 -65 -25 l0 -25 -215 0 -215 0 0 25 c0 24 -2 25 -75 25
-74 0 -75 0 -75 -25 0 -26 0 -26 -82 -23 -77 3 -83 5 -86 26 -3 20 -8 22 -73
22 -67 0 -69 -1 -69 -25 l0 -25 -196 0 -196 0 6 25 c6 25 6 25 -64 25 -38 0
-70 -1 -70 -2z"/>
<path d="M4303 1923 c-25 -5 -29 -19 -13 -43 8 -12 10 -11 10 8 0 26 15 29 29
5 9 -16 10 -16 11 5 0 13 6 22 15 22 8 0 15 -7 15 -15 0 -8 4 -15 9 -15 5 0 7
9 4 20 -5 20 -26 23 -80 13z"/>
<path d="M2306 1885 c-12 -32 -7 -55 13 -55 10 0 32 -3 48 -6 28 -6 31 -3 35
25 5 37 4 38 -49 47 -32 5 -41 3 -47 -11z m62 -1 c13 -4 22 -14 22 -25 0 -15
-7 -19 -34 -19 -38 0 -49 10 -40 34 7 17 16 19 52 10z"/>
<path d="M2435 1858 c-2 -7 -6 -30 -10 -50 l-6 -38 261 0 c258 0 261 0 250 20
-10 18 -8 20 25 20 28 0 35 -4 35 -20 0 -18 7 -20 75 -20 68 0 75 2 75 20 0
18 7 20 80 20 73 0 80 -2 80 -20 0 -19 7 -20 241 -20 157 0 238 3 234 10 -4 6
-68 10 -160 10 -92 0 -156 4 -160 10 -4 7 68 10 209 10 209 0 216 -1 216 -20
0 -18 7 -20 65 -20 58 0 65 2 65 20 0 17 7 20 45 20 25 0 54 -5 65 -12 15 -10
30 -9 75 6 48 15 56 21 53 39 -3 20 -10 22 -81 25 -77 3 -78 2 -75 -20 3 -21
-1 -23 -37 -23 -34 0 -40 3 -43 23 -3 20 -9 22 -67 22 -58 0 -64 -2 -67 -22
-3 -23 -4 -23 -211 -26 l-207 -2 -10 25 c-9 25 -13 26 -77 23 -62 -3 -68 -5
-71 -25 -3 -21 -8 -23 -72 -23 -81 0 -100 6 -100 31 0 17 -8 19 -69 19 -65 0
-70 -2 -73 -22 l-3 -23 -210 0 -210 0 2 23 c3 21 -1 22 -62 22 -44 0 -67 -4
-70 -12z"/>
<path d="M4347 1863 c-4 -3 -7 -17 -7 -30 0 -14 -6 -23 -16 -23 -12 0 -15 7
-12 25 4 17 1 25 -9 25 -10 0 -13 -6 -9 -16 3 -9 6 -25 6 -36 0 -14 6 -19 23
-16 17 2 23 11 25 36 2 21 9 32 19 32 11 0 14 -8 11 -30 -3 -22 0 -30 10 -30
10 0 13 7 8 23 -3 12 -6 28 -6 35 0 13 -32 17 -43 5z"/>
<path d="M2290 1781 c0 -24 5 -29 31 -35 17 -3 41 -6 53 -5 21 0 21 0 -1 9
-30 12 -32 50 -3 43 11 -3 20 0 20 6 0 7 -20 11 -50 11 -48 0 -50 -1 -50 -29z
m48 -4 c2 -12 -3 -17 -17 -17 -23 0 -24 1 -15 25 8 19 28 15 32 -8z"/>
<path d="M2420 1695 l0 -45 93 0 c51 0 97 4 103 9 5 5 91 11 192 13 147 4 182
2 182 -9 0 -10 25 -13 114 -13 94 0 115 3 120 16 5 13 26 15 173 8 93 -3 172
-10 178 -15 5 -5 55 -9 111 -9 81 0 103 3 108 15 3 10 19 15 46 15 29 0 40 -4
40 -15 0 -12 14 -15 65 -15 51 0 65 3 65 15 0 12 23 15 128 18 l127 3 -127 2
-128 2 0 25 c0 24 -2 25 -65 25 -63 0 -65 -1 -65 -25 0 -23 -4 -25 -45 -25
-41 0 -45 2 -45 25 l0 25 -245 0 c-147 0 -245 -4 -245 -9 0 -6 10 -17 22 -25
21 -15 19 -16 -45 -16 -56 0 -75 4 -105 25 -31 21 -48 25 -109 25 -71 0 -73
-1 -73 -25 0 -20 -5 -25 -25 -25 -22 0 -25 3 -19 25 l6 25 -266 0 -266 0 0
-45z"/>
<path d="M4330 1719 c0 -11 5 -17 10 -14 6 3 10 13 10 21 0 8 -4 14 -10 14 -5
0 -10 -9 -10 -21z"/>
<path d="M2291 1693 c1 -21 3 -30 6 -20 3 13 16 17 51 19 l47 1 -42 4 c-29 3
-43 9 -43 19 0 8 -4 14 -10 14 -5 0 -9 -17 -9 -37z"/>
<path d="M2380 1630 c0 -17 -7 -20 -47 -21 -48 -1 -48 -1 -13 -10 48 -11 70
-3 70 27 0 13 -2 24 -5 24 -3 0 -5 -9 -5 -20z"/>
<path d="M4300 1619 c0 -5 23 -9 52 -9 28 0 49 2 47 4 -9 8 -99 13 -99 5z"/>
<path d="M2424 1589 c3 -17 6 -40 6 -50 0 -17 9 -19 105 -19 87 0 105 3 105
15 0 13 26 15 175 15 149 0 175 -2 175 -15 0 -12 19 -15 114 -15 92 0 115 3
120 15 4 13 34 15 181 15 149 0 175 -2 175 -15 0 -12 18 -15 104 -15 83 0 105
3 110 15 3 10 19 15 46 15 29 0 40 -4 40 -15 0 -21 125 -22 133 0 5 11 32 15
124 18 l118 3 -122 2 -123 2 0 30 0 30 -65 0 -65 0 0 -30 c0 -29 -2 -30 -45
-30 -43 0 -45 1 -45 30 l0 30 -105 0 -105 0 0 -30 0 -30 -180 0 -180 0 0 30 0
30 -115 0 -115 0 0 -30 0 -30 -180 0 -180 0 -6 30 -6 30 -100 0 -100 0 6 -31z"/>
<path d="M2343 1582 c-24 -2 -43 -7 -43 -12 0 -4 18 -6 40 -3 26 4 40 2 40 -6
0 -6 0 -14 1 -18 0 -5 -17 -13 -38 -20 -30 -9 -33 -12 -13 -12 51 -1 70 10 70
40 0 33 -3 35 -57 31z"/>
<path d="M4346 1562 c-3 -3 -6 -14 -6 -24 0 -13 -7 -18 -25 -18 -41 0 -28 -17
17 -23 52 -7 58 -3 58 32 0 20 -6 30 -19 34 -11 3 -22 2 -25 -1z m32 -34 c-2
-13 -7 -23 -13 -23 -5 0 -11 10 -13 23 -2 15 2 22 13 22 11 0 15 -7 13 -22z"/>
<path d="M2375 1500 c-3 -6 1 -7 9 -4 12 5 16 0 16 -19 0 -25 -16 -37 -52 -37
-16 0 -19 5 -16 25 4 17 1 25 -9 25 -11 0 -13 -8 -8 -32 4 -18 8 -34 9 -35 7
-8 91 25 90 35 -1 7 -2 21 -2 32 -2 21 -26 27 -37 10z"/>
<path d="M2454 1449 c4 -23 9 -46 12 -51 8 -12 214 -10 214 2 0 6 58 10 155
10 97 0 155 -4 155 -10 0 -6 45 -10 115 -10 70 0 115 4 115 10 0 6 67 10 180
10 113 0 180 -4 180 -10 0 -6 42 -10 105 -10 63 0 105 4 105 10 0 6 20 10 45
10 25 0 45 -4 45 -10 0 -6 28 -10 65 -10 37 0 65 4 65 10 0 6 21 10 46 10 27
0 43 -4 39 -10 -4 -6 17 -10 55 -10 56 0 61 2 70 26 16 41 13 44 -43 44 -42 0
-55 -4 -65 -21 -10 -16 -21 -19 -55 -17 -38 3 -42 6 -47 33 -5 29 -7 30 -68
33 l-62 3 0 -36 0 -36 -42 3 c-40 3 -43 5 -46 36 l-3 33 -102 -3 -102 -3 -3
-33 -3 -32 -177 2 -177 3 -3 33 -3 32 -115 0 -114 0 0 -35 0 -35 -158 0 -158
0 -15 33 -14 32 -99 3 -99 3 7 -42z"/>
<path d="M4277 1463 c-7 -38 -2 -43 48 -43 30 0 45 5 49 16 8 22 9 21 -26 38
-46 23 -65 20 -71 -11z m43 -8 c0 -8 -7 -15 -15 -15 -8 0 -15 7 -15 15 0 8 7
15 15 15 8 0 15 -7 15 -15z m40 -10 c0 -8 -4 -15 -9 -15 -13 0 -22 16 -14 24
11 11 23 6 23 -9z"/>
<path d="M2364 1412 c-25 -14 -29 -21 -24 -42 7 -26 20 -28 78 -15 29 7 29 22
0 21 -30 -1 -34 28 -6 42 21 10 21 11 3 11 -11 0 -34 -8 -51 -17z m16 -32 c0
-11 -7 -20 -15 -20 -8 0 -15 9 -15 20 0 11 7 20 15 20 8 0 15 -9 15 -20z"/>
<path d="M4260 1400 c-5 -10 -10 -27 -9 -37 0 -12 4 -9 11 10 14 39 40 36 36
-5 -2 -28 1 -34 19 -36 17 -3 26 4 33 24 14 35 4 44 -11 10 -17 -35 -31 -33
-27 5 2 25 -2 33 -19 40 -18 6 -25 4 -33 -11z"/>
<path d="M2490 1340 c0 -5 8 -25 17 -45 l17 -35 114 0 c97 0 113 2 108 15 -5
13 13 15 119 15 104 0 125 -2 125 -15 0 -12 19 -15 115 -15 96 0 115 3 115 15
0 13 27 15 180 15 153 0 180 -2 180 -15 0 -12 18 -15 105 -15 87 0 105 3 105
15 0 11 12 15 45 15 33 0 45 -4 45 -15 0 -13 22 -15 138 -15 l138 0 22 45 22
45 -64 0 c-56 0 -66 -3 -71 -20 -4 -11 -15 -20 -27 -20 -11 0 -22 8 -25 20 -5
17 -14 20 -69 20 -57 0 -64 -2 -64 -20 0 -17 -7 -20 -45 -20 -38 0 -45 3 -45
20 0 19 -7 20 -105 20 -98 0 -105 -1 -105 -20 0 -19 -7 -20 -180 -20 -173 0
-180 1 -180 20 0 19 -7 20 -115 20 -108 0 -115 -1 -115 -20 0 -19 -7 -20 -134
-20 -126 0 -135 1 -141 20 -6 18 -15 20 -116 20 -63 0 -109 -4 -109 -10z"/>
<path d="M2405 1323 c8 -28 -13 -40 -30 -17 -16 21 -20 8 -6 -15 10 -16 46
-10 76 14 20 16 20 16 -2 10 -15 -4 -25 0 -33 12 -10 16 -10 16 -5 -4z"/>
<path d="M2440 1278 c0 -9 5 -20 10 -23 13 -8 13 5 0 25 -8 13 -10 13 -10 -2z"/>
<path d="M4240 1275 c0 -8 2 -15 4 -15 2 0 6 7 10 15 3 8 1 15 -4 15 -6 0 -10
-7 -10 -15z"/>
<path d="M2550 1223 c0 -4 12 -24 26 -45 l27 -38 104 0 c83 0 105 3 109 15 5
12 25 15 90 15 68 0 84 -3 84 -15 0 -12 19 -15 115 -15 96 0 115 3 115 15 0
13 27 15 180 15 153 0 180 -2 180 -15 0 -12 18 -15 104 -15 83 0 105 3 110 15
3 10 19 15 46 15 29 0 40 -4 40 -15 0 -12 18 -15 100 -15 95 0 100 1 116 25 9
14 20 22 25 19 17 -10 9 -38 -17 -65 -26 -27 -28 -59 -3 -59 8 0 9 4 0 13 -21
26 2 26 38 0 l36 -26 -32 32 c-18 17 -33 33 -33 36 0 12 26 3 47 -17 17 -16
26 -19 35 -10 8 8 8 15 -1 26 -18 21 -4 37 25 30 13 -3 24 -4 24 0 0 10 -76
44 -96 43 -14 -2 -18 4 -17 21 3 22 1 22 -122 22 l-125 0 0 -25 c0 -23 -4 -25
-45 -25 -41 0 -45 2 -45 25 l0 25 -105 0 -105 0 0 -25 0 -25 -180 0 -180 0 0
25 0 25 -115 0 -115 0 0 -25 c0 -25 -1 -25 -90 -25 -84 0 -90 1 -106 25 -16
24 -20 25 -130 25 -63 0 -114 -3 -114 -7z m1618 -88 c-13 -24 -16 -25 -28 -11
-11 14 -10 16 6 9 16 -6 17 -4 7 8 -10 12 -10 18 -1 27 20 20 31 -3 16 -33z"/>
<path d="M2490 1152 c-28 -24 -31 -31 -22 -48 6 -12 18 -27 27 -34 13 -11 19
-10 35 5 22 20 26 8 11 -30 -5 -13 -3 -25 7 -34 13 -13 17 -12 33 8 10 13 17
27 14 31 -3 5 0 12 6 16 8 4 9 3 5 -4 -4 -7 -2 -12 4 -12 7 0 2 -15 -10 -36
-27 -43 -19 -54 20 -30 35 20 39 12 10 -19 l-20 -21 25 -24 c19 -18 27 -20 38
-11 14 11 47 6 47 -8 0 -4 -5 -12 -12 -19 -8 -8 -5 -16 13 -31 28 -24 40 -26
58 -8 11 10 12 8 3 -9 -9 -17 -7 -23 18 -37 15 -9 35 -17 44 -17 9 0 16 -6 16
-12 1 -8 7 -5 15 6 20 27 50 14 34 -15 -9 -17 -8 -20 3 -17 7 3 18 -1 23 -8 6
-6 19 -15 31 -18 17 -5 23 0 36 33 17 42 13 51 -25 64 -14 5 -20 1 -24 -13 -3
-11 -9 -20 -15 -20 -5 0 -4 9 2 21 13 23 13 22 -17 38 -19 10 -24 8 -33 -9 -6
-11 -15 -18 -20 -15 -5 3 -13 -2 -18 -11 -6 -11 -14 -14 -25 -8 -13 8 -14 13
-2 41 16 37 45 36 45 -1 1 -19 1 -20 11 -3 9 14 7 22 -8 32 -10 8 -23 15 -29
15 -6 0 -24 11 -40 25 -16 14 -32 25 -35 25 -4 0 -28 20 -55 44 -46 43 -49 44
-75 30 -39 -20 -42 -18 -23 17 14 29 14 33 0 47 -15 15 -18 14 -38 -6 -13 -13
-17 -22 -10 -22 7 0 10 -4 7 -10 -3 -5 -10 -10 -15 -10 -9 0 -7 21 5 78 9 38
-4 42 -42 12 -21 -16 -29 -18 -40 -8 -13 10 -10 16 17 41 42 37 34 45 -10 9z
m206 -173 c3 -6 1 -16 -4 -21 -13 -13 -45 8 -36 23 7 12 31 11 40 -2z m-27
-32 c17 -21 -7 -40 -26 -21 -8 7 -11 18 -8 24 8 14 20 13 34 -3z m61 -13 c0
-8 5 -12 10 -9 11 7 14 -8 4 -18 -10 -9 -47 30 -39 42 8 14 25 4 25 -15z m71
-45 c5 -11 15 -17 20 -13 7 4 6 -4 -1 -17 -18 -34 -24 -38 -15 -10 4 13 3 21
-2 18 -13 -8 -57 29 -49 41 9 15 34 4 47 -19z m-46 -12 c20 -15 13 -39 -9 -31
-15 6 -29 44 -17 44 4 0 15 -6 26 -13z m173 -71 c3 -12 -1 -17 -10 -14 -7 3
-15 13 -16 22 -3 12 1 17 10 14 7 -3 15 -13 16 -22z m68 -20 c3 -8 0 -26 -8
-40 -19 -36 -43 -20 -33 23 7 32 31 42 41 17z"/>
<path d="M2666 1065 l26 -35 149 0 c126 0 149 -2 149 -15 0 -12 19 -15 115
-15 96 0 115 3 115 15 0 13 27 15 180 15 153 0 180 -2 180 -15 0 -12 18 -15
105 -15 87 0 105 3 105 15 0 11 12 15 44 15 30 0 46 -5 50 -15 3 -9 18 -15 38
-15 24 0 43 10 75 42 24 23 43 46 43 50 0 4 -36 8 -80 8 l-80 0 0 -31 c0 -29
-1 -30 -42 -27 -39 3 -43 6 -46 31 l-3 27 -105 0 -104 0 0 -30 0 -30 -180 0
-180 0 0 30 0 30 -115 0 -115 0 0 -30 0 -30 -130 0 c-71 0 -130 3 -130 7 0 4
10 17 22 30 l21 23 -67 0 -67 0 27 -35z"/>
<path d="M4046 1051 c-15 -16 -15 -19 -1 -31 8 -7 15 -17 15 -23 0 -5 -10 -2
-22 9 -21 17 -21 16 1 -9 27 -30 16 -36 -33 -17 -30 11 -33 5 -8 -24 17 -21
17 -21 -5 -3 -21 18 -22 18 -72 -21 l-50 -39 25 -37 c29 -42 39 -46 30 -12 -4
17 -1 26 10 30 10 4 14 13 10 24 -4 9 5 4 18 -13 14 -16 25 -25 26 -19 0 5 -6
16 -12 22 -10 10 -10 15 2 22 19 13 30 12 30 0 0 -5 5 -10 11 -10 6 0 9 7 6
14 -4 11 -1 13 11 9 12 -5 11 1 -7 20 l-24 26 34 -9 c43 -13 42 -13 36 4 -4
10 -1 13 9 9 7 -3 14 -1 14 5 0 6 -6 12 -12 15 -10 3 -10 8 1 21 10 12 17 14
25 6 20 -20 29 -10 10 13 -10 12 -12 16 -4 10 20 -18 35 -16 20 2 -7 9 -21 13
-31 10 -9 -3 -20 -1 -24 5 -9 15 -20 12 -39 -9z m44 -10 c0 -5 -6 -14 -14 -20
-16 -13 -32 2 -21 19 8 12 35 13 35 1z m-106 -100 c3 -5 -1 -14 -8 -20 -16
-13 -32 2 -21 19 8 12 22 13 29 1z m-54 -45 c0 -21 -20 -30 -33 -17 -9 9 -8
14 3 21 21 14 30 12 30 -4z"/>
<path d="M2990 940 c0 -29 0 -29 -67 -33 l-68 -3 68 -2 c37 -1 67 -6 67 -12 0
-6 45 -10 115 -10 70 0 115 4 115 10 0 6 20 10 44 10 25 0 48 -4 51 -10 4 -6
94 -10 239 -10 189 0 236 3 252 15 17 13 17 14 2 15 -13 0 -18 8 -18 30 l0 30
-105 0 c-81 0 -105 -3 -105 -13 0 -8 -8 -21 -18 -30 -16 -14 -44 -17 -180 -17
l-162 0 0 30 0 30 -115 0 -115 0 0 -30z"/>
<path d="M3790 843 c-25 -14 -46 -26 -48 -28 -2 -2 6 -21 17 -44 20 -38 23
-40 46 -29 14 6 25 17 25 24 0 7 6 11 13 8 7 -2 21 3 32 12 18 14 18 15 2 10
-27 -9 -40 3 -25 21 11 14 10 15 -10 9 -25 -8 -31 11 -10 32 17 17 9 14 -42
-15z m16 -44 c13 -26 14 -33 2 -40 -9 -6 -20 0 -35 19 -21 25 -22 28 -6 40 22
16 20 17 39 -19z"/>
<path d="M3060 816 c36 -13 86 -26 113 -30 l47 -7 0 30 0 31 -112 -1 -113 0
65 -23z"/>
<path d="M3318 804 l-4 -37 90 6 c88 6 229 36 264 56 12 7 -38 10 -164 11
l-182 0 -4 -36z"/>
<path d="M3671 789 c-18 -7 -22 -14 -17 -32 15 -59 -34 -100 -53 -45 -13 36
-6 52 20 45 11 -3 19 -1 19 4 0 11 -31 11 -49 0 -8 -5 -11 -17 -7 -32 l6 -24
-12 23 c-11 23 -15 24 -77 17 -37 -4 -69 -9 -73 -11 -5 -4 1 -84 8 -92 1 -2
16 -1 32 3 25 5 29 10 26 33 -4 27 -4 27 4 2 9 -30 43 -38 65 -16 12 12 17 13
20 3 4 -9 6 -9 6 1 1 7 6 10 11 7 6 -4 26 -1 46 5 28 10 35 16 31 32 -7 27 22
36 39 13 22 -29 18 7 -4 43 -14 25 -21 28 -41 21z m29 -24 c0 -8 -9 -15 -20
-15 -20 0 -26 11 -13 23 12 13 33 7 33 -8z m-142 -37 c18 -18 15 -38 -5 -31
-16 6 -16 5 -4 -10 12 -15 11 -17 -7 -17 -13 0 -23 10 -30 29 -6 16 -8 32 -5
35 10 10 38 7 51 -6z m-78 -32 c0 -20 -6 -36 -14 -39 -20 -8 -26 2 -26 40 0
26 4 33 20 33 16 0 20 -7 20 -34z"/>
<path d="M3059 771 c12 -8 13 -16 4 -45 -6 -20 -8 -36 -3 -36 4 0 10 14 14 30
3 18 12 30 21 30 12 0 14 -8 9 -39 -5 -33 -3 -39 15 -44 12 -3 21 -1 21 4 0 5
-7 9 -16 9 -9 0 -14 6 -11 13 2 6 12 11 21 11 9 -1 16 2 16 7 0 5 -7 9 -15 9
-8 0 -15 7 -15 16 0 9 7 14 18 12 13 -3 17 -13 15 -46 -2 -36 1 -43 20 -46 54
-10 67 -6 67 22 0 25 1 25 15 6 19 -25 19 -11 0 26 -12 24 -25 30 -72 40 -32
6 -71 15 -87 21 -37 11 -55 11 -37 0z m154 -45 c17 -13 25 -62 8 -52 -5 4 -11
1 -13 -5 -2 -5 -11 -7 -21 -4 -11 5 -17 18 -17 41 0 36 13 43 43 20z"/>
<path d="M3277 693 c-5 -47 5 -69 14 -28 l7 30 1 -27 c1 -24 5 -28 31 -28 29
0 30 2 30 45 l0 45 -39 0 c-37 0 -39 -1 -44 -37z m71 -5 c-2 -22 -9 -34 -20
-36 -15 -3 -18 4 -18 32 0 30 4 36 21 36 17 0 20 -5 17 -32z"/>
<path d="M3371 688 c-1 -46 0 -48 27 -47 16 1 20 3 10 6 -10 2 -20 14 -23 26
-2 12 -6 31 -8 42 -3 11 -5 -1 -6 -27z"/>
</g>
</svg>
